<?xml version="1.0" standalone="no"?><!DOCTYPE svg PUBLIC "-//W3C//DTD SVG 1.1//EN" "http://www.w3.org/Graphics/SVG/1.1/DTD/svg11.dtd"><svg t="1634804744169" class="icon" viewBox="0 0 1024 1024" version="1.1" xmlns="http://www.w3.org/2000/svg" p-id="11450" xmlns:xlink="http://www.w3.org/1999/xlink" width="200" height="200"><defs><style type="text/css"></style></defs><path d="M832 953.6H192a97.92 97.92 0 0 1-97.28-97.92V512a32.64 32.64 0 0 1 32.64-32.64 32.64 32.64 0 0 1 28.8 32.64v346.24a32.64 32.64 0 0 0 32 32.64H832a32.64 32.64 0 0 0 32.64-32.64V506.88a32.64 32.64 0 0 1 64 0v348.8A98.56 98.56 0 0 1 832 953.6zM39.68 474.24a33.92 33.92 0 0 1-25.6-12.16 32.64 32.64 0 0 1 5.12-46.08l403.84-320a128 128 0 0 1 158.72-3.84l422.4 320a32 32 0 0 1 6.4 45.44 32.64 32.64 0 0 1-45.44 7.04l-424.32-320a64 64 0 0 0-75.52 0L59.52 467.2a28.8 28.8 0 0 1-19.84 7.04z" fill="#323333" p-id="11451"></path><path d="M241.28 613.12m12.8 0l62.72 0q12.8 0 12.8 12.8l0 62.72q0 12.8-12.8 12.8l-62.72 0q-12.8 0-12.8-12.8l0-62.72q0-12.8 12.8-12.8Z" fill="#323333" p-id="11452"></path><path d="M241.28 484.48m12.8 0l62.72 0q12.8 0 12.8 12.8l0 62.72q0 12.8-12.8 12.8l-62.72 0q-12.8 0-12.8-12.8l0-62.72q0-12.8 12.8-12.8Z" fill="#323333" p-id="11453"></path><path d="M241.28 743.68m12.8 0l62.72 0q12.8 0 12.8 12.8l0 62.72q0 12.8-12.8 12.8l-62.72 0q-12.8 0-12.8-12.8l0-62.72q0-12.8 12.8-12.8Z" fill="#323333" p-id="11454"></path><path d="M367.36 743.68m12.8 0l62.72 0q12.8 0 12.8 12.8l0 62.72q0 12.8-12.8 12.8l-62.72 0q-12.8 0-12.8-12.8l0-62.72q0-12.8 12.8-12.8Z" fill="#323333" p-id="11455"></path><path d="M492.8 743.68m12.8 0l62.72 0q12.8 0 12.8 12.8l0 62.72q0 12.8-12.8 12.8l-62.72 0q-12.8 0-12.8-12.8l0-62.72q0-12.8 12.8-12.8Z" fill="#323333" p-id="11456"></path><path d="M367.36 613.12m12.8 0l62.72 0q12.8 0 12.8 12.8l0 62.72q0 12.8-12.8 12.8l-62.72 0q-12.8 0-12.8-12.8l0-62.72q0-12.8 12.8-12.8Z" fill="#323333" p-id="11457"></path></svg>